<?xml version="1.0" encoding="UTF-8"?>
<svg id="Camada_1" data-name="Camada 1" xmlns="http://www.w3.org/2000/svg" viewBox="0 0 595.28 841.89">
  <path d="M274.61,541.27c-42.17,0-84.34,.03-126.5-.02-9.36-.01-16.65-6.63-17.45-15.17-1.54-16.37,5.27-22.08,14.37-24.15,2.71-.62,5.64-.3,8.47-.3,64.5-.01,129-.03,193.51,.03,5.56,0,10.58-.85,14.49-5.2,4.42-4.91,5.51-10.54,3.36-16.68-2.16-6.18-6.58-9.89-13.15-10.71-2.3-.29-4.65-.31-6.98-.31-68.17-.02-136.34,0-204.51-.02-14.42,0-24.37-6.94-27.8-19.57-1.86-6.85-1.04-13.52,2.56-19.75,30.11-52.11,60.21-104.23,90.31-156.35,11.72-20.3,23.45-40.59,35.14-60.91,4.74-8.23,11.5-12.07,19.04-10.64,9,1.71,17.79,9.32,18.37,17.43,.29,4.13-1.19,8.91-3.28,12.6-16.45,29.08-33.24,57.98-49.93,86.92-16.37,28.37-32.77,56.71-49.12,85.09-5,8.68-2.65,18.71,5.38,23.52,7.98,4.77,17.99,1.97,23.08-6.83,28.4-49.07,56.7-98.19,85.04-147.29,6.57-11.37,13.08-22.78,19.73-34.11,11.38-19.36,35.62-19.35,46.86,.1,41.83,72.41,83.59,144.86,125.36,217.3,5.46,9.48,3.06,18.62-6.26,24.42-12.95,8.05-21.72,5.81-29.28-7.3-32.55-56.45-65.18-112.85-97.68-169.33-4.17-7.25-9.82-11.06-18.37-9.93-6.41,.85-11.4,5.55-13.31,12.55-1.39,5.1,.39,9.49,2.86,13.75,16.88,29.23,33.77,58.44,50.64,87.67,17.96,31.1,36.02,62.14,53.8,93.34,10.58,18.57-1.88,39.8-23.22,39.83-41.83,.07-83.67,.02-125.5,.02v-.02Zm42.11-138.38c.08-14.79-11.67-26.63-26.44-26.64-14.45-.01-26.43,11.71-26.66,26.1-.23,14.41,11.9,26.84,26.35,27,14.63,.16,26.67-11.75,26.75-26.47Z" fill="#dad8e8"/>
</svg>